<svg xmlns="http://www.w3.org/2000/svg" width="1080" height="540" viewBox="0 0 1080 540">
  <defs>
    <style>
      .cls-1 {
        fill: #f7989c;
        fill-rule: evenodd;
      }
    </style>
  </defs>
  <path id="Color_Fill_1" data-name="Color Fill 1" class="cls-1" d="M0,0H1080V540H0V0ZM400,206V324c0,3.2-.486,7.294,1,9V215C401,211.8,401.486,207.706,400,206Zm383,34c4.128,1.144,9.216,6.124,16,4v-1h4v-1c3.087-.705,4.254-1.949,5-5,2.66-2.595,1.283-4.763,1-9l-4-3v-1l-15-4q-0.5-2.5-1-5c1.8-.945,1.574-1.385,4-2v-1c1.952-1.108,10.075,1.5,11,2q0.5,1,1,2l3-1v-2h1q-0.5-1.5-1-3l-3-1v-1h-2v-1h-5v-1c-3.913-.985-8.92,2.321-12,3-2.528,5.384-3.349,6.9-2,14l3,2v1h2v1c7.055,3.231,13.916-2.118,14,9l-3,1v1l-11-1-2-3h-3q-0.5,1.5-1,3h-1Q782.5,238.5,783,240ZM243,307l3,9h1l3,9h1v3h1c1.829,3.645,1.609,5.9,6,7,2.6,2.66,4.763,1.283,9,1l5-6c0.166-5.371-.2-9.481-2-13h-1v-2h-1v-3h-1v-2h-1v-3h-1l-1-4h-1v-3h-1l-1-4h-1v-3h-1v-2h-1v-3h-1l-1-4h-1v-3h-1q-0.5-2-1-4h-1v-3h-1v-2h-1v-3h-1q-0.5-2-1-4h-1v-3h-1q-0.5-2-1-4h-1v-3h-1v-2h-1v-3h-1q-0.5-2-1-4h-1v-3h-1v-2h-1v-3h-1q-0.5-2-1-4h-1v-3h-1q-0.5-2-1-4h-1v-3h-1v-2h-1v-3h-1v-2h-1c-2.007-3.781-1.348-6.777-6-8-1.263-1.352-5.423-3.33-9-2v1h-2l-2,3-2,1q-1,3.5-2,7h-1v2h-1q-0.5,2.5-1,5h-1v2h-1q-0.5,2.5-1,5h-1v3h-1q-0.5,2-1,4h-1v3h-1v2h-1v3h-1q-0.5,2-1,4h-1v3h-1v2h-1v3h-1q-0.5,2-1,4h-1v3h-1v2h-1v3h-1q-0.5,2-1,4h-1v3h-1q-0.5,2.5-1,5h-1v2h-1v3h-1q-0.5,2-1,4h-1v3h-1q-0.5,2-1,4h-1v3h-1v2h-1v3h-1v2h-1v3h-1q-0.5,2-1,4h-1v3h-1v2h-1c-0.993,2.361-1.082,7.68,0,10h1c1.595,2.864-.755,1.838,3,3,3.186,3.36,7,.9,11,0l6-10q0.5-2.5,1-5h1v-2h1c0.829-1.848,3-10.425,4-11h55Zm199-64h5c0.684-3.409,2.228-4.613,3-8h16c0.684,3.409,2.228,4.613,3,8h5c0.03-3-.059-4.963-1-7h-1q-0.5-2.5-1-5h-1v-3h-1l-1-4h-1v-3h-1v-2h-1v-3h-1l-1-4h-1c-2-4.173.812-4.738-6-5-2.091,4.954-4.929,10.318-7,15v3h-1v2h-1q-0.5,2.5-1,5h-1q-0.5,2.5-1,5h-1Q442.5,240,442,243Zm93-12h13a7.436,7.436,0,0,0,2,2v7l2,1c2.444,2.446,1.013,1.979,6,2q0.5-1.5,1-3l-3-2v-6h-1v-2h-1c-0.883-1.383-.739-1.736-1-4,3.881-2.2,4.169-5.7,4-12-1.361-1.166-1.528-1.825-2-4l-3-1v-1h-2v-1H530c-2.816,7.636-1.05,25.176-1,35a12.71,12.71,0,0,0,5,1v-1h1V231Zm89-18v30h6V213a53.612,53.612,0,0,0,11-1,10.6,10.6,0,0,0,1-4c-7.031-2.6-20.15-1.052-29-1a10.6,10.6,0,0,0-1,4l3,1C616.593,213.485,620.892,213.092,624,213Zm85-6c-1.758,9.83-1.013,23.548-1,35a15.682,15.682,0,0,0,6,1c1.7-9.526,1.012-22.86,1-34C712.388,207.618,713.307,207.231,709,207Zm157,5a60.584,60.584,0,0,0,11,1v29a15.682,15.682,0,0,0,6,1c1.488-8.317,1.012-20.1,1-30h9c1.094-2.078,1.611-1.771,2-5-6.779-2.508-19.422-1.052-28-1A12.71,12.71,0,0,0,866,212ZM311,314V217h-1q-0.5-2.5-1-5c-4.919-2.7-4.821-3.992-13-4v1h-3l-3,4c-4.053,4.05-2,19.417-2,27v70c0,9.863-1.874,21.842,6,24,3.228,3.2,12.758,2,19,2,16.826,0,35.784.507,51-1,0.988-1.649,4.682-4.335,5-5V320l-6-5h-4c-3.57-1.154-8.022-1-13-1H311ZM535,213h14a24.436,24.436,0,0,1,0,11c-3.334,1.248-9.175,1.047-14,1V213Zm-78,6,3,1,3,9H453v-1C454.2,226.821,456.556,221.1,457,219ZM214,245h2q1,3,2,6h1v3h1q0.5,2,1,4h1v3h1q0.5,2,1,4h1v3h1v2h1v2h1v2h1v3h1l3,9H197v-1c2.48-2.3.735-2.222,2-5h1v-2h1v-2h1v-3h1q0.5-2,1-4h1l3-10h1v-2h1v-3h1Zm240,77V293c-2.078-1.094-1.771-1.611-5-2l-1,3c-1.5,1.686-1,5.819-1,9v23c5.25,2.74,13.89,2.079,22,2,0.945-1.8,1.385-1.574,2-4a12.077,12.077,0,0,1-2-2H454Zm84-31v1l-5,1v1l-5,4v2h-1c-1.145,2.006-.194,2.427-2,4-0.165,8.38.428,14.431,4,19l3,1,2,3c3.636,0.356,9.253,2.365,14,1v-1h3c1.536-2.224,4.671-3.026,6-5q1-3,2-6h1V303h-1q-0.5-2-1-4h-1l-5-6h-2C547.7,290.636,542.769,290.9,538,291Zm78,5a8.5,8.5,0,0,1-2,4h-1q-0.5,2.5-1,5h-1c-2.1,6.614,2.066,11.788,3,16l4,3v1l6,2v1c5.907,2.111,13.205-1.223,17-2a12.119,12.119,0,0,1,2-2V310c-3.334-1.248-9.175-1.047-14-1a10.6,10.6,0,0,0-1,4c1.135,0.844.145-.127,1,1h7v8a67.835,67.835,0,0,1-13-1c-1.807-3.031-7.691-8.87-5-16h1v-2h1q0.5-1.5,1-3l3-1v-1h2v-1l11,1v1l3-1v-2h1q-0.5-1.5-1-3c-3.637-.762-9.421-3.824-15-2v1l-5,1v1A8.482,8.482,0,0,1,616,296Zm91-5v1l-5,1v1l-6,5v2c-1.511,1.435-3.318,10.068-2,14h1v3h1v2l2,1c5.756,8.419,10.107,7.447,22,6l2-3,3-1v-2l2-1v-2h1c4.4-9.971-1.819-23.167-9-25C716.7,290.636,711.769,290.9,707,291Zm-168,6h7v1a7.537,7.537,0,0,1,6,6c3.131,3.009,1.345,7.383,1,12-2.666,1.773-2.3,3.99-6,5-2.395,2.281-8.348.56-11,0-0.9-1.776-2.482-4.721-4-6a67.835,67.835,0,0,1,1-13Zm169,0h7v1c4,1.018,4.38,3.807,7,6q0.5,3.5,1,7c-0.6,2.48-2.374,5.2-3,8-5.073,2.388-4.8,3.047-13,3-1.139-1.139,0-.4-2-1-0.9-1.776-2.482-4.721-4-6a67.835,67.835,0,0,1,1-13Z"/>
</svg>
